<svg version="1.1" xmlns="http://www.w3.org/2000/svg" width="15" height="24"><defs/><g><path fill="rgb(204,204,204)" stroke="none" paint-order="stroke fill markers" fill-rule="evenodd" d=" M 2.5227584838867188 19.859325885772705 C 2.5227584838867188 19.859325885772705 10.381072998046875 12.001652956008911 10.381072998046875 12.001652956008911 C 10.381072998046875 12.001652956008911 2.4190750122070312 4.038905382156372 2.4190750122070312 4.038905382156372 C 2.4190750122070312 4.038905382156372 2.4202194213867188 4.038905382156372 2.4202194213867188 4.038905382156372 C 2.1604385375976562 3.768895387649536 1.999420166015625 3.4024077653884888 1.999420166015625 2.9970743656158447 C 1.999420166015625 2.1692135334014893 2.6706161499023438 1.4973726272583008 3.499053955078125 1.4973726272583008 C 3.9044036865234375 1.4973726272583008 4.2703857421875 1.6572134494781494 4.541038513183594 1.9189448356628418 C 4.541038513183594 1.9189448356628418 4.541038513183594 1.9176712036132812 4.541038513183594 1.9176712036132812 C 4.541038513183594 1.9176712036132812 13.541244506835938 10.917473673820496 13.541244506835938 10.917473673820496 C 13.541244506835938 10.917473673820496 13.54010009765625 10.918428897857666 13.54010009765625 10.918428897857666 C 13.822654724121094 11.190986156463623 13.999008178710938 11.573712587356567 13.999008178710938 11.99783205986023 C 13.999008178710938 11.99910569190979 13.999008178710938 12.00037932395935 13.999008178710938 12.001652956008911 C 13.999008178710938 12.002608180046082 13.999008178710938 12.003881812095642 13.999008178710938 12.005155444145203 C 13.999008178710938 12.427682876586914 13.822654724121094 12.811046123504639 13.54010009765625 13.083284974098206 C 13.54010009765625 13.083284974098206 13.541244506835938 13.083284974098206 13.541244506835938 13.083284974098206 C 13.541244506835938 13.083284974098206 4.541038513183594 22.0837242603302 4.541038513183594 22.0837242603302 C 4.541038513183594 22.0837242603302 4.537376403808594 22.08085858821869 4.537376403808594 22.08085858821869 C 4.267982482910156 22.3387690782547 3.9020004272460938 22.497336268424988 3.499053955078125 22.497336268424988 C 2.6706161499023438 22.497336268424988 1.999420166015625 21.82676899433136 1.999420166015625 20.998271346092224 C 1.999420166015625 20.54294788837433 2.2020950317382812 20.135067224502563 2.5227584838867188 19.859325885772705 Z"/></g></svg>