<svg version="1.1" xmlns="http://www.w3.org/2000/svg" xmlns:xlink="http://www.w3.org/1999/xlink" width="15" height="24"><defs/><g><path fill="rgb(204,204,204)" stroke="none" paint-order="stroke fill markers" fill-rule="evenodd" d=" M 12.477157592773438 19.859325885772705 C 12.477157592773438 19.859325885772705 4.618843078613281 12.001652956008911 4.618843078613281 12.001652956008911 C 4.618843078613281 12.001652956008911 12.580841064453125 4.038905382156372 12.580841064453125 4.038905382156372 C 12.580841064453125 4.038905382156372 12.579582214355469 4.038905382156372 12.579582214355469 4.038905382156372 C 12.8394775390625 3.768895387649536 13.000381469726562 3.4024077653884888 13.000381469726562 2.9970743656158447 C 13.000381469726562 2.1692135334014893 12.329299926757812 1.4973726272583008 11.500747680664062 1.4973726272583008 C 11.095512390136719 1.4973726272583008 10.729530334472656 1.6572134494781494 10.458877563476562 1.9189448356628418 C 10.458877563476562 1.9189448356628418 10.458877563476562 1.9176712036132812 10.458877563476562 1.9176712036132812 C 10.458877563476562 1.9176712036132812 1.45855712890625 10.917473673820496 1.45855712890625 10.917473673820496 C 1.45855712890625 10.917473673820496 1.4598159790039062 10.918428897857666 1.4598159790039062 10.918428897857666 C 1.1772613525390625 11.190986156463623 1.00079345703125 11.573712587356567 1.00079345703125 11.99783205986023 C 1.00079345703125 11.99910569190979 1.00079345703125 12.00037932395935 1.00079345703125 12.001652956008911 C 1.00079345703125 12.002608180046082 1.00079345703125 12.003881812095642 1.00079345703125 12.005155444145203 C 1.00079345703125 12.427682876586914 1.1772613525390625 12.811046123504639 1.4598159790039062 13.083284974098206 C 1.4598159790039062 13.083284974098206 1.45855712890625 13.083284974098206 1.45855712890625 13.083284974098206 C 1.45855712890625 13.083284974098206 10.458877563476562 22.0837242603302 10.458877563476562 22.0837242603302 C 10.458877563476562 22.0837242603302 10.462425231933594 22.08085858821869 10.462425231933594 22.08085858821869 C 10.73193359375 22.3387690782547 11.097801208496094 22.497336268424988 11.500747680664062 22.497336268424988 C 12.329299926757812 22.497336268424988 13.000381469726562 21.82676899433136 13.000381469726562 20.998271346092224 C 13.000381469726562 20.54294788837433 12.797821044921875 20.135067224502563 12.477157592773438 19.859325885772705 Z"/></g></svg>